<svg xmlns="http://www.w3.org/2000/svg" xmlns:xlink="http://www.w3.org/1999/xlink" width="500" zoomAndPan="magnify" viewBox="0 0 375 374.999991" height="500" preserveAspectRatio="xMidYMid meet" version="1.0"><defs><clipPath id="ae96b4b3b6"><path d="M 44.238281 0 L 326.25 0 C 339.179688 0 351.578125 5.136719 360.722656 14.277344 C 369.863281 23.421875 375 35.820312 375 48.75 L 375 326.25 C 375 339.179688 369.863281 351.578125 360.722656 360.722656 C 351.578125 369.863281 339.179688 375 326.25 375 L 44.238281 375 C 31.308594 375 18.90625 369.863281 9.765625 360.722656 C 0.621094 351.578125 -4.511719 339.179688 -4.511719 326.25 L -4.511719 48.75 C -4.511719 35.820312 0.621094 23.421875 9.765625 14.277344 C 18.90625 5.136719 31.308594 0 44.238281 0 Z M 44.238281 0 " clip-rule="nonzero"/></clipPath><clipPath id="d4965122c6"><path d="M 0 0 L 374.988281 0 L 374.988281 375 L 0 375 Z M 0 0 " clip-rule="nonzero"/></clipPath><clipPath id="fcc6168118"><path d="M 44.238281 0 L 326.25 0 C 339.179688 0 351.578125 5.136719 360.71875 14.277344 C 369.863281 23.421875 375 35.820312 375 48.75 L 375 326.25 C 375 339.179688 369.863281 351.578125 360.71875 360.722656 C 351.578125 369.863281 339.179688 375 326.25 375 L 44.238281 375 C 31.308594 375 18.90625 369.863281 9.765625 360.722656 C 0.621094 351.578125 -4.511719 339.179688 -4.511719 326.25 L -4.511719 48.75 C -4.511719 35.820312 0.621094 23.421875 9.765625 14.277344 C 18.90625 5.136719 31.308594 0 44.238281 0 Z M 44.238281 0 " clip-rule="nonzero"/></clipPath><clipPath id="160f6006d3"><path d="M 37.5 115.3125 L 337.5 115.3125 L 337.5 260 L 37.5 260 Z M 37.5 115.3125 " clip-rule="nonzero"/></clipPath></defs><g clip-path="url(#ae96b4b3b6)"><path fill="#ffdd57" d="M -4.511719 0 L 374.882812 0 L 374.882812 375 L -4.511719 375 Z M -4.511719 0 " fill-opacity="1" fill-rule="nonzero"/></g><g clip-path="url(#d4965122c6)"><g clip-path="url(#fcc6168118)"><path stroke-linecap="butt" transform="matrix(0.75, 0, 0, 0.75, -4.513306, 0.000794263)" fill="none" stroke-linejoin="miter" d="M 65.002116 -0.00105902 L 441.017742 -0.00105902 C 458.257325 -0.00105902 474.788575 6.847899 486.976075 19.035399 C 499.168783 31.228108 506.017742 47.759358 506.017742 64.998941 L 506.017742 434.998942 C 506.017742 452.238525 499.168783 468.769775 486.976075 480.962483 C 474.788575 493.149983 458.257325 499.998942 441.017742 499.998942 L 65.002116 499.998942 C 47.762533 499.998942 31.226074 493.149983 19.038574 480.962483 C 6.845866 468.769775 0.0021158 452.238525 0.0021158 434.998942 L 0.0021158 64.998941 C 0.0021158 47.759358 6.845866 31.228108 19.038574 19.035399 C 31.226074 6.847899 47.762533 -0.00105902 65.002116 -0.00105902 Z M 65.002116 -0.00105902 " stroke="#2160c4" stroke-width="36" stroke-opacity="1" stroke-miterlimit="4"/></g></g><g clip-path="url(#160f6006d3)"><path fill="#2160c4" d="M 210.25 124.132812 C 160.09375 124.132812 111.371094 135.316406 83.929688 150.898438 L 72.234375 115.3125 L 52.292969 115.3125 L 52.292969 161.128906 L 69.746094 161.128906 C 66.109375 164.636719 63.542969 168.273438 62.210938 171.976562 L 37.871094 171.976562 L 37.871094 183.554688 L 62.214844 183.554688 C 69.046875 202.585938 108.632812 219.84375 157.730469 227.390625 L 163.878906 255.851562 C 164.371094 258.125 166.390625 259.6875 168.628906 259.6875 L 230.917969 259.6875 C 233.035156 259.6875 234.835938 258.335938 235.503906 256.449219 L 247.921875 229.265625 C 302.683594 222.777344 337.09375 202.179688 337.09375 177.765625 C 337.09375 148.144531 286.445312 124.132812 210.25 124.132812 Z M 155.796875 136.316406 C 173.777344 133.359375 192.160156 131.917969 210.25 131.917969 C 238.867188 131.917969 272.652344 135.386719 299.128906 146.972656 C 310.90625 152.121094 329.3125 162.808594 329.3125 177.765625 C 329.3125 188.007812 320.554688 196.179688 312.269531 201.574219 C 314.582031 197.34375 315.785156 192.917969 315.785156 188.351562 C 315.785156 158.730469 265.140625 134.71875 188.941406 134.71875 C 177.75 134.71875 166.625 135.28125 155.796875 136.316406 Z M 164.042969 233.589844 L 166.628906 245.558594 L 178.425781 245.558594 L 178.425781 233.589844 Z M 183.289062 245.558594 L 199.339844 245.558594 L 199.339844 233.589844 L 183.289062 233.589844 Z M 204.203125 245.558594 L 220.253906 245.558594 L 220.253906 233.589844 L 204.203125 233.589844 Z M 225.117188 245.558594 L 235.152344 245.558594 L 240.621094 233.589844 L 225.117188 233.589844 Z M 225.117188 245.558594 " fill-opacity="1" fill-rule="evenodd"/></g></svg>